<svg width="42" height="42" viewBox="0 0 42 42" fill="none" xmlns="http://www.w3.org/2000/svg">
<path d="M42 17.1098C42 14.9538 40.4254 13.1679 38.3622 12.8306C38.3583 12.8253 38.3521 12.8205 38.3473 12.8188L29.1537 11.5806L25.1234 3.41381C24.4969 1.78369 22.9219 0.623001 21.0704 0.623001C19.152 0.623001 17.5258 1.86725 16.9518 3.59319L13.0839 11.5806L4.088 12.7689C4.08713 12.7741 4.08582 12.7811 4.0845 12.7864C1.87075 12.9889 0.137817 14.8474 0.137817 17.1102C0.137817 18.5382 0.828192 19.7999 1.89 20.5944L8.11913 26.8656L6.60494 35.1816C6.60975 35.1842 6.61413 35.1864 6.61938 35.1886C6.45269 35.6501 6.35775 36.1427 6.35775 36.6599C6.35775 39.0591 8.30244 41.0043 10.7034 41.0043C11.515 41.0043 12.2741 40.7781 12.9268 40.3878L21.119 36.3108L28.9905 40.2526C29.6879 40.7282 30.5301 41.0047 31.4374 41.0047C33.8358 41.0047 35.7805 39.06 35.7805 36.6603C35.7805 36.5352 35.7713 36.4092 35.7604 36.2832C35.7687 36.2788 35.7726 36.274 35.7805 36.267L34.1202 26.8664L40.5182 20.4199C40.5178 20.4142 40.509 20.4028 40.5011 20.3901C41.4173 19.5926 42 18.4214 42 17.1098Z" fill="white"/>
</svg>
